# xmcd
#
# Track frame offsets:
#	150
#	11178
#	20742
#	36575
#	47221
#	63333
#	72386
#	86460
#	95228
#	104928
#	115787
#	127039
#	137379
#	147494
#	157978
#	166303
#	176656
#	188209
#	195787
#	204300
#	211578
#	222395
#	234923
#	243348
#	253112
#	262612
#	273040
#	282597
#	293944
#	302047
#	310225
#	319470
#	330615
#	339495
#
# Disc length: 4663 seconds
#
# Revision: 1
# Processed by: cddbd v1.5.2PL0 Copyright (c) Steve Scherf et al.
# Submitted via: audiograbber 1.83.01
#
DISCID=06123522
DTITLE=Chad Morgan - The Dues Are Paid
DYEAR=2012
DGENRE=Country
TTITLE0=The Sheik Of Scrubby Creek
TTITLE1=You Can Have Your Women
TTITLE2=The Duckinwilla Stud
TTITLE3=Black Man Jacky Jacky
TTITLE4=The Ballad Of Bill and Eva
TTITLE5=The Crow Flying Backwards
TTITLE6=Can't Cut The Mustard
TTITLE7=Chasin' Sorts In Childers
TTITLE8=It's No Fun
TTITLE9=Casa The Dasha
TTITLE10=Morgan's Truckin' Song
TTITLE11=The Tough Cain Cutter From The Isis
TTITLE12=One Of The Mob
TTITLE13=The Bachelors Warning
TTITLE14=The Chook Song
TTITLE15=The Dinkum Dill
TTITLE16=The Duckinwilla Dance
TTITLE17=The Fatal Wedding
TTITLE18=A Three Ply Coffin
TTITLE19=The Horrors
TTITLE20=The Night I Went Below
TTITLE21=You Can't Take It With You
TTITLE22=The Party At The Local Hotel
TTITLE23=The Psychiatrists Joy From Kingaroy
TTITLE24=The Rooster Crowed
TTITLE25=The Shotgun Wedding
TTITLE26=The Woolshed Swinger
TTITLE27=There's Life In The Old Dog Yet
TTITLE28=Things I See
TTITLE29=Threshing Machine
TTITLE30=When The Whips Are Crackin'
TTITLE31=Where The Grass Never Grows
TTITLE32=Who's Gonna Pay For The Wedding
TTITLE33=You Just Can't Win
EXTD=
EXTT0=
EXTT1=
EXTT2=
EXTT3=
EXTT4=
EXTT5=
EXTT6=
EXTT7=
EXTT8=
EXTT9=
EXTT10=
EXTT11=
EXTT12=
EXTT13=
EXTT14=
EXTT15=
EXTT16=
EXTT17=
EXTT18=
EXTT19=
EXTT20=
EXTT21=
EXTT22=
EXTT23=
EXTT24=
EXTT25=
EXTT26=
EXTT27=
EXTT28=
EXTT29=
EXTT30=
EXTT31=
EXTT32=
EXTT33=
PLAYORDER=
